<svg xmlns="http://www.w3.org/2000/svg" viewBox="0 0 244.73 266.07"><defs><style>.cls-1,.cls-5{fill:#5c8096;}.cls-1,.cls-2,.cls-3,.cls-4,.cls-5,.cls-6{stroke:#5c8096;stroke-miterlimit:10;}.cls-1{stroke-width:2px;}.cls-2,.cls-3,.cls-6{fill:none;}.cls-2,.cls-4{stroke-width:7px;}.cls-3{stroke-width:5px;}.cls-4{fill:#fff;}.cls-6{stroke-width:17px;}</style></defs><g id="Layer_2" data-name="Layer 2"><g id="Layer_1-2" data-name="Layer 1"><circle class="cls-1" cx="199.64" cy="45.09" r="44.09"/><path class="cls-2" d="M235.15,146.74A115.83,115.83,0,1,1,119.32,30.92,115.83,115.83,0,0,1,235.15,146.74Z"/><path class="cls-2" d="M99.46,147.15c-.83,1.63-6.53,12.4-18.71,15.11-11.52,2.55-24.09-3.15-30.93-14.39"/><line class="cls-3" x1="93.67" y1="157.85" x2="108.81" y2="169.71"/><line class="cls-3" x1="80.14" y1="162.67" x2="89.15" y2="177.85"/><line class="cls-3" x1="54.14" y1="156.85" x2="39" y2="168.71"/><line class="cls-3" x1="67.68" y1="162.67" x2="58.66" y2="177.85"/><path class="cls-2" d="M190.29,147.15c-.83,1.63-6.52,12.4-18.7,15.11-11.52,2.55-24.09-3.15-30.94-14.39"/><line class="cls-3" x1="184.51" y1="157.85" x2="199.64" y2="169.71"/><line class="cls-3" x1="170.97" y1="162.67" x2="179.99" y2="177.85"/><line class="cls-3" x1="144.98" y1="156.85" x2="129.84" y2="168.71"/><line class="cls-3" x1="158.51" y1="162.67" x2="149.5" y2="177.85"/><path class="cls-4" d="M172.33,43.74a471.52,471.52,0,0,1-70.86,49.9,429.26,429.26,0,0,1-97.34,41"/><path class="cls-4" d="M120.33,82.22A211.41,211.41,0,0,0,171.24,116a212.74,212.74,0,0,0,63.91,18.62"/><path class="cls-2" d="M120.68,196.51c-10.62,3.58-17,8.85-16.26,12.05.66,2.88,7.21,4.55,15.11,4.5"/><path class="cls-2" d="M120.32,212.73c-7.47,2.88-12.85,7.19-12.37,10.35.53,3.52,8.52,6.62,19.89,5.68"/><path class="cls-5" d="M233,123.7a22.16,22.16,0,0,0-5.4-8.12,8.23,8.23,0,0,0,1.78-7.23,7.28,7.28,0,0,0-1.49-2.83,7.12,7.12,0,0,0-3.47-5.9,23.65,23.65,0,0,0-3.67-1.89,19.45,19.45,0,0,0-9.16-17,15.56,15.56,0,0,0-2.51-2.63,8.26,8.26,0,0,0-3.68-5.67,7.08,7.08,0,0,0-1.52-.69,36,36,0,0,0-4.3-7.54,42.57,42.57,0,0,0-13.09-11.33L181,45.25c-2.38-3.31-6.5-4.83-10.26-2.69a6.52,6.52,0,0,0-1.27,1c-.11-.1-.22-.2-.34-.29-.34-.27-.69-.5-1-.76l0,0-.15-.08c-13.28-9.77-29.45-12-45.63-12.44-9.25-.26-18.73,0-27.46,3.43C90.78,35,87,37.2,83,39.11c-4.41,2.11-8.73,3-13.49,4C51.81,46.49,40.91,62.82,30.61,76.24c-10.71,14-20.1,29.3-23.11,46.9a5.32,5.32,0,0,0-.06.56c-3.72,2.89-1,10.24,4.47,8.76a147,147,0,0,0,21.59-7.09c5.71-2.54,10.62-6.16,15.83-9.47a22.68,22.68,0,0,0,15.06-3.7c4.82-3,8.82-7,14.58-8a4,4,0,0,0,3.57-3.63c3.77-1.5,7.5-3,11.15-4.7a187.88,187.88,0,0,0,32.55-18.67,7.42,7.42,0,0,0-1.15,2.36c-1,3.55,1.24,8.61,5.24,9.22,1.11.18,2.18.39,3.24.64a7.56,7.56,0,0,0,3.15,4.46,93.89,93.89,0,0,0,13.31,7.7,7.3,7.3,0,0,0,2,5.3c8.13,9.09,21.84,9.82,33,12.52,5.34,1.3,9.19,5.63,14.5,7.47,6.79,2.34,13.81,4.19,20.69,6.28a7.06,7.06,0,0,0,4.44,0,7,7,0,0,0,3.2-.16C231.4,131.92,234.53,127.51,233,123.7ZM134.32,74.27a9.56,9.56,0,0,0-4.81.43l1.32-1c1.26-1,2.55-1.92,3.85-2.82,0,0,0,.09,0,.13a7.07,7.07,0,0,0,.85,3.47C135.12,74.42,134.72,74.33,134.32,74.27Z"/><path class="cls-6" d="M202,64.14A778.73,778.73,0,0,1,113.05,101a780.08,780.08,0,0,1-107,28.42"/><path class="cls-5" d="M128.36,87.31a7.45,7.45,0,0,0-7.49-5.42c-2-3.08-6.9-4.81-10.11-2.46a38.74,38.74,0,0,1-8.15,4.77c-3.46,1.4-6,4.26-5.38,8.23.53,3.49,3.58,6.72,7.37,6.5a129.8,129.8,0,0,0,18.52-2.4C127.09,95.73,129.38,91,128.36,87.31Z"/></g></g></svg>